<svg viewBox="384 519 732 450" xmlns="http://www.w3.org/2000/svg" style="max-height: 500px" width="732" height="450"><defs><clipPath id="a"><path d="M400 529.66h208V798H400Zm0 0"/></clipPath><clipPath id="b"><path d="M445 772h202v145H445Zm0 0"/></clipPath><clipPath id="c"><path d="m443.441 790.375 185.489-46.59 45.129 179.672-185.489 46.59Zm0 0"/></clipPath><clipPath id="d"><path d="m443.441 790.375 185.489-46.59 45.129 179.672-185.489 46.59Zm0 0"/></clipPath><clipPath id="e"><path d="M531 923h33v33h-33Zm0 0"/></clipPath><clipPath id="f"><path d="m443.441 790.375 185.489-46.59 45.129 179.672-185.489 46.59Zm0 0"/></clipPath><clipPath id="g"><path d="m443.441 790.375 185.489-46.59 45.129 179.672-185.489 46.59Zm0 0"/></clipPath><clipPath id="h"><path d="M619 901h33v33h-33Zm0 0"/></clipPath><clipPath id="i"><path d="m443.441 790.375 185.489-46.59 45.129 179.672-185.489 46.59Zm0 0"/></clipPath><clipPath id="j"><path d="m443.441 790.375 185.489-46.59 45.129 179.672-185.489 46.59Zm0 0"/></clipPath><clipPath id="k"><path d="M0 0h434v193H0z"/></clipPath><clipPath id="l"><path d="M757.066 835h343.5v89.238h-343.5Zm0 0"/></clipPath><clipPath id="m"><path d="M0 0h362v88H0z"/></clipPath></defs><g clip-path="url(#a)"><path d="M503.86 529.867c-23.684 0-42.942 16.621-42.942 36.938v28.629h-30.336a4.612 4.612 0 0 0-4.617 3.832L400.293 780.68a16 16 0 0 0-.148 1.59q-.03.796.023 1.593.057.798.195 1.582.14.787.364 1.555.222.764.527 1.504t.687 1.437a14.483 14.483 0 0 0 1.816 2.617q.522.604 1.106 1.149.587.545 1.227 1.02a14.5 14.5 0 0 0 2.742 1.62q.727.33 1.484.583a15 15 0 0 0 1.54.414q.78.168 1.574.25.796.082 1.593.078H592.7a14.5 14.5 0 0 0 3.168-.328q.778-.167 1.54-.414.756-.254 1.484-.582a14.7 14.7 0 0 0 2.742-1.621 14.5 14.5 0 0 0 2.332-2.168q.522-.603.98-1.258a15 15 0 0 0 1.524-2.797 15 15 0 0 0 .89-3.059q.14-.784.196-1.582.053-.796.023-1.593a16 16 0 0 0-.148-1.59l-25.86-181.555a4.6 4.6 0 0 0-.554-1.527 4.5 4.5 0 0 0-1.047-1.239 4.5 4.5 0 0 0-1.414-.8 4.6 4.6 0 0 0-1.602-.266h-30.152v-28.488c0-20.317-19.254-36.938-42.942-36.938m-33.981 65.567v-28.63c0-15.511 15.234-28.116 33.98-28.116s33.985 12.695 33.985 28.117v28.629Zm0 0" fill="#d77a61"/></g><g clip-path="url(#b)"><g clip-path="url(#c)"><g clip-path="url(#d)"><path d="M634.574 774.016a7.99 7.99 0 0 0-6.691-1.317l-132.348 33.242-11.746-19.8a8 8 0 0 0-8.828-3.676l-23.68 5.945a8 8 0 0 0-5.808 9.707c1.074 4.285 5.422 6.883 9.703 5.809l17.894-4.496 53.45 90.097c-1.692 6.551-2.602 15.551 2.511 21.61 4.532 5.367 12.07 6.773 22.41 4.176q.283-.07.559-.168c.656-.23 65.945-23.145 89.313-27.625 3.406-.665 5.671-3.97 5.011-7.395a6.307 6.307 0 0 0-7.39-5.004c-23.727 4.555-85.47 26.125-90.84 28.012-5.68 1.387-8.617.797-9.41-.137-.883-1.043-1.032-3.394-.688-6.187.164-.047.324-.09.488-.157l98.172-37.675a8 8 0 0 0 5.117-7.91l-3.953-71.055a8.01 8.01 0 0 0-3.246-5.996m-46.746 51.742-31.844 8-6.261-24.934 31.84-8ZM521.77 850.16l28.71-7.21 7.325 29.155-18.75 7.2Zm36.058-9.055 31.844-8 6.133 24.415-30.875 11.851Zm66.016-24.394-28.668 7.203-6.262-24.934 33.473-8.41Zm-81.469-6.043 6.262 24.934-30.903 7.761-13.683-23.07Zm60.555 44.117-5.907-23.523 27.25-6.848 1.207 21.715Zm0 0" fill="#495057"/></g></g></g><g clip-path="url(#e)"><g clip-path="url(#f)"><g clip-path="url(#g)"><path d="M562.824 935.285q.188.761.305 1.54.116.777.156 1.562.036.78 0 1.566a18 18 0 0 1-.152 1.563q-.117.773-.305 1.535a17 17 0 0 1-.453 1.504c-.18.492-.379.972-.602 1.449q-.333.709-.738 1.383a16 16 0 0 1-1.863 2.515 16.394 16.394 0 0 1-2.32 2.105q-.632.47-1.305.876c-.45.265-.91.515-1.383.738s-.953.426-1.45.602q-.737.263-1.5.457a16.152 16.152 0 0 1-3.098.46q-.785.042-1.565 0a15 15 0 0 1-1.563-.152 17 17 0 0 1-1.539-.304 17 17 0 0 1-1.5-.454 16.2 16.2 0 0 1-5.351-3.203 17 17 0 0 1-1.11-1.109 15.6 15.6 0 0 1-1.867-2.516q-.405-.674-.738-1.382a15 15 0 0 1-.602-1.446 17 17 0 0 1-.457-1.504 15.7 15.7 0 0 1-.46-3.097 16 16 0 0 1-.005-1.567q.04-.784.157-1.562c.074-.516.175-1.032.304-1.54q.189-.76.453-1.5.264-.738.598-1.449.34-.708.738-1.382a16.1 16.1 0 0 1 2.973-3.63 16.5 16.5 0 0 1 2.516-1.866q.674-.405 1.382-.739a15 15 0 0 1 1.45-.601q.738-.264 1.5-.457.761-.194 1.539-.305c.515-.078 1.039-.129 1.558-.156a15 15 0 0 1 1.57 0q.786.035 1.56.152.777.111 1.538.305.762.188 1.5.453c.496.176.977.375 1.453.598a17 17 0 0 1 2.688 1.609 16.4 16.4 0 0 1 2.32 2.105q.528.58.996 1.211a16 16 0 0 1 2.215 4.133q.264.738.457 1.5m0 0" fill="#495057"/></g></g></g><g clip-path="url(#h)"><g clip-path="url(#i)"><g clip-path="url(#j)"><path d="M651.004 913.137a15.8 15.8 0 0 1 .465 3.097q.034.786 0 1.57a17 17 0 0 1-.153 1.56q-.117.777-.304 1.538a16.6 16.6 0 0 1-1.055 2.953q-.334.71-.738 1.383a16 16 0 0 1-1.864 2.516q-.528.583-1.109 1.11c-.387.35-.793.683-1.21.995a16.1 16.1 0 0 1-5.638 2.672q-.76.188-1.539.305a16 16 0 0 1-1.558.156q-.786.036-1.57 0a16 16 0 0 1-4.598-.91q-.74-.269-1.45-.602a16 16 0 0 1-1.382-.738q-.677-.404-1.305-.87-.634-.466-1.215-.993a16.393 16.393 0 0 1-2.105-2.32 16.1 16.1 0 0 1-2.211-4.137q-.27-.738-.457-1.5c-.13-.508-.23-1.02-.309-1.535a15 15 0 0 1-.152-1.563 16 16 0 0 1-.004-1.566q.04-.785.152-1.563.117-.774.305-1.539a16.6 16.6 0 0 1 1.055-2.949q.333-.71.738-1.383.404-.675.871-1.304a16.5 16.5 0 0 1 2.102-2.325c.386-.351.793-.683 1.21-.996a16.1 16.1 0 0 1 4.137-2.21q.738-.265 1.5-.458a15.8 15.8 0 0 1 4.668-.46c.52.023 1.043.074 1.559.152q.778.11 1.539.304.762.189 1.5.453t1.45.598c.472.227.937.473 1.382.738q.677.404 1.305.871.634.47 1.214.997.581.525 1.11 1.105a16.5 16.5 0 0 1 1.867 2.516q.404.673.742 1.383.333.71.602 1.449.265.738.453 1.5m0 0" fill="#495057"/></g></g></g><g transform="translate(496 606)" clip-path="url(#k)" fill="#495057"><path d="M12.325 147.89V42.296h23.032V89.5a74.4 74.4 0 0 0 15.125-8.563c4.75-3.469 8.96-7.305 12.64-11.516q5.513-6.327 9.438-13.28 3.92-6.952 5.672-13.845h26.406Q102.4 50.3 97.919 58.062q-4.488 7.751-10.64 14.64-6.16 6.88-13.204 12.235-7.03 5.36-14.39 8.406v2.235q9.107 0 15.343 2.25c4.165 1.492 7.66 3.593 10.485 6.312a40.5 40.5 0 0 1 7.203 9.281 71.6 71.6 0 0 1 5.047 10.954l8.469 23.515H80.153l-5.437-18.719c-1.281-4.375-2.938-8.21-4.969-11.515-2.023-3.313-4.953-5.899-8.797-7.766q-5.754-2.796-16.312-2.797h-9.281v40.797ZM120.15 147.89V33.828h23.046v25.75c0 2.136-.086 4.433-.25 6.89q-.236 3.673-.718 7.516-.47 3.83-1.032 7.672a111 111 0 0 1-1.359 7.515h3.36q2.232-8.637 5.671-14.796 3.435-6.155 8.953-9.438 5.53-3.28 13.844-3.281 8.484.001 13.922 3.125c3.625 2.086 6.445 4.777 8.469 8.078q3.045 4.956 4.484 10.797 1.452 5.847 1.844 11.437.406 5.595.406 9.766v43.031h-23.047v-40.469q0-5.92-.797-10.796c-.53-3.258-1.386-6.063-2.562-8.407q-1.753-3.515-4.719-5.437-2.955-1.922-7.281-1.922-6.392 0-10.563 3.844-4.158 3.83-6.312 10.468-2.159 6.644-2.313 15.125v37.594ZM239.983 150.125q-7.048 0-12.484-2.72c-3.625-1.812-6.48-4.444-8.563-7.905-2.074-3.47-3.109-7.711-3.109-12.735q-.002-8.796 3.922-13.906 3.92-5.123 10.078-7.844 6.152-2.716 13.031-3.922 6.891-1.201 12.797-2 5.436-.794 8.797-1.672 3.374-.888 4.89-2.562 1.515-1.687 1.516-4.563c0-2.132-.48-4-1.437-5.593q-1.441-2.404-4.328-3.922-2.876-1.53-7.516-1.531-4.471.002-8.469 1.609a17.25 17.25 0 0 0-6.812 4.875q-2.8 3.282-3.75 8.234l-20.485-5.75q1.763-6.872 5.36-11.828a32.2 32.2 0 0 1 8.719-8.25q5.121-3.28 11.515-4.875c4.27-1.07 8.91-1.61 13.922-1.61 6.508 0 12.055.806 16.64 2.407 4.583 1.594 8.286 4.024 11.11 7.281q4.247 4.876 6.25 11.844 1.999 6.955 2 15.906V113.5q-.002 5.438.156 11.28c.102 3.888.29 7.75.563 11.595.27 3.836.562 7.671.875 11.515h-20.313q-.485-4.313-1.047-9.515a144 144 0 0 1-.718-10.641h-2.72c-1.491 4.055-3.62 7.812-6.39 11.281-2.773 3.469-6.187 6.188-10.25 8.156q-6.08 2.954-13.75 2.954m9.766-16.797q3.03 0 6.14-1.032 3.125-1.043 6.079-3.125c1.976-1.382 3.797-3.144 5.453-5.28 1.656-2.134 2.96-4.536 3.922-7.204l-.328-12.625 3.687.625q-2.72 2.097-6.484 3.297a53.5 53.5 0 0 1-7.844 1.828c-2.719.43-5.414.906-8.078 1.438-2.668.53-5.07 1.226-7.203 2.078q-3.187 1.281-5.11 3.53c-1.28 1.493-1.922 3.517-1.922 6.08q0 4.798 3.282 7.593 3.28 2.799 8.406 2.797M313.09 147.89V33.828h22.72V147.89ZM356.286 147.89V63.906h23.047v83.984Zm11.531-96.14q-6.72.001-10.328-2.875-3.595-2.888-3.594-8.172-.001-5.591 3.594-8.47 3.609-2.889 10.328-2.89 6.872.001 10.47 2.89 3.608 2.879 3.608 8.47 0 5.284-3.609 8.172-3.596 2.876-10.469 2.875M399.802 147.89V33.828h22.719V147.89Zm0 0"/></g><g clip-path="url(#l)"><path d="M762.563 863.063c.109-.508.214-1 .347-1.493l.43-1.433c.234-.946.656-1.84.95-2.719.769-1.73 1.577-3.344 2.554-4.844 1.02-1.469 2.07-2.879 3.312-4.129a28.5 28.5 0 0 1 8.793-6.117l.64-.305.669-.253c.449-.16.898-.348 1.363-.516.934-.25 1.895-.633 2.902-.852 1.004-.257 2.043-.453 3.133-.636.012 0 .024-.008.032-.008 1.289-.2 1.628-1.926.488-2.551a18 18 0 0 0-3.442-1.414c-1.191-.363-2.425-.512-3.687-.68-.633-.078-1.262-.047-1.902-.062h-.965c-.317.011-.633.062-.953.09-5.141.476-10.145 2.988-13.809 6.773-1.856 1.887-3.309 4.129-4.43 6.496-1.082 2.399-1.695 4.965-1.91 7.524-.027.644-.012 1.289-.008 1.925.008.32-.004.633.02.95.031.316.082.632.12.949.099.625.153 1.246.286 1.86.145.605.3 1.206.492 1.8.317.95.703 1.879 1.164 2.758.711 1.347 2.746 1.011 2.953-.496.125-.907.274-1.77.457-2.617m332.847 2.617c.207 1.508 2.238 1.843 2.95.496.464-.88.847-1.809 1.167-2.758.192-.594.348-1.195.489-1.8.132-.614.191-1.235.289-1.86.039-.317.09-.633.117-.95s.015-.628.023-.949c.004-.636.016-1.28-.007-1.925-.22-2.559-.833-5.125-1.915-7.524-1.117-2.367-2.574-4.61-4.425-6.496-3.664-3.785-8.668-6.297-13.809-6.773-.32-.028-.637-.078-.957-.09h-.965c-.637.015-1.27-.016-1.898.062-1.262.168-2.5.317-3.692.68-1.199.36-2.359.824-3.437 1.414-1.145.625-.8 2.352.484 2.55.012 0 .024.009.031.009 1.094.183 2.133.379 3.137.636 1.004.22 1.969.602 2.899.852.464.168.918.355 1.363.516l.668.253.644.305a28.5 28.5 0 0 1 8.79 6.117c1.246 1.25 2.296 2.66 3.312 4.13.98 1.5 1.789 3.112 2.555 4.843.293.879.718 1.773.945 2.719l.434 1.433c.136.492.238.985.347 1.492.184.848.332 1.711.461 2.618m-167.918 58.758c-27.23 0-54.281-5.579-80.402-16.579-25.274-10.644-49.738-26.39-72.711-46.793a4.22 4.22 0 0 1-.352-5.949 4.217 4.217 0 0 1 5.946-.351c45.109 40.07 96.117 61.25 147.52 61.25 51.843 0 103.241-21.528 148.64-62.25a4.21 4.21 0 0 1 5.945.324 4.21 4.21 0 0 1-.324 5.95c-23.106 20.726-47.738 36.726-73.207 47.542-26.32 11.188-53.594 16.856-81.055 16.856" fill="#495057"/></g><g transform="translate(763 754)" clip-path="url(#m)" fill="#495057"><path d="M17.375 67.046c-2.168 0-4.172-.289-6.016-.859s-3.402-1.36-4.672-2.36Q4.778 62.328 4 60.454l3-3.125h.656q1.686 2.564 4.062 3.86 2.375 1.298 5.657 1.296c2.539 0 4.472-.492 5.797-1.484 1.32-.989 1.984-2.368 1.984-4.141q0-2.029-1.203-3.36c-.805-.882-2.102-1.546-3.89-1.984l-5.813-1.437q-4.658-1.125-6.797-3.563c-1.43-1.625-2.14-3.633-2.14-6.031 0-1.875.476-3.5 1.437-4.875q1.435-2.076 4.14-3.203 2.702-1.125 6.422-1.125 4.747.002 7.485 1.328 2.73 1.331 4.265 3.687l-2.875 2.813h-.625q-1.657-1.906-3.61-2.75-1.956-.844-4.64-.844-3.409 0-5.219 1.219c-1.21.812-1.812 1.992-1.812 3.531q0 2.099 1.281 3.375 1.28 1.284 4.469 2.063l5.719 1.375q4.498 1.064 6.5 3.531 1.999 2.472 2 6.187 0 3.036-1.438 5.344-1.439 2.314-4.344 3.61-2.908 1.295-7.093 1.296M90.723 66.39V18.093h5.094v18.735l.656.125q3.685-5.672 10.656-5.672 6.218 0 9 3.172 2.796 3.157 2.797 9.75V66.39h-5.078V44.328q0-3.123-.797-5.016-.797-1.888-2.469-2.75c-1.117-.57-2.578-.86-4.39-.86q-4.689.001-7.531 3.032c-1.899 2.023-2.844 5.344-2.844 9.969V66.39ZM195.382 67.046q-4.875 0-8.484-2.062c-2.407-1.375-4.262-3.398-5.563-6.078-1.305-2.676-1.953-5.922-1.953-9.735s.648-7.062 1.953-9.75c1.3-2.687 3.156-4.71 5.563-6.078q3.609-2.062 8.484-2.062t8.484 2.062c2.407 1.368 4.254 3.391 5.547 6.078q1.952 4.032 1.953 9.75 0 5.721-1.953 9.735c-1.293 2.68-3.14 4.703-5.547 6.078q-3.609 2.062-8.484 2.062m0-4.562q5.156.001 7.89-3.25 2.733-3.247 2.735-10.063-.002-6.842-2.734-10.093-2.736-3.248-7.891-3.25-5.157.001-7.906 3.265c-1.836 2.18-2.75 5.54-2.75 10.078 0 4.543.914 7.899 2.75 10.063q2.75 3.251 7.906 3.25M272.354 80.359V31.937h5.093v5.14l.657.126q3.841-5.92 11.28-5.922 4.313 0 7.516 1.969 3.218 1.956 5 5.968 1.782 4.019 1.782 9.953 0 5.909-1.875 9.907-1.875 4.003-5.188 5.984-3.298 1.985-7.61 1.984c-2.335 0-4.405-.406-6.218-1.218q-2.719-1.219-4.687-4l-.657.125v18.406Zm15.53-17.875c6.977 0 10.47-4.438 10.47-13.313 0-8.894-3.493-13.343-10.47-13.343q-3.062 0-5.405 1.406-2.345 1.407-3.688 4.39-1.346 2.989-1.344 7.547-.001 4.535 1.344 7.516 1.343 2.986 3.688 4.39 2.342 1.407 5.406 1.407m0 0"/></g></svg>