<svg preserveAspectRatio="xMidYMid meet" viewBox="227.328 342.016 563.2 339.968" xmlns="http://www.w3.org/2000/svg" version="1.0" style="max-height: 500px" width="563.2" height="339.968">
 <g fill="#ffffff">
  <path d="M0 512 l0 -512 512 0 512 0 0 512 0 512 -512 0 -512 0 0 -512z m383.7 159.9 c3.4 -1.3 8 -5.5 9.9 -9.1 0.8 -1.5 1.4 -5.2 1.4 -8.3 l0 -5.5 27 0 27 0 0 3.1 c0 1.9 -1 4.3 -2.5 6.1 -1.4 1.6 -2.8 4 -3.1 5.4 -0.7 2.9 1.7 7 5 8.5 3.1 1.5 9.5 -1.8 13.3 -6.8 2.5 -3.2 2.8 -4.4 2.6 -9.8 l-0.3 -6.2 4.8 -0.7 c2.6 -0.3 6 -1.5 7.6 -2.5 2.7 -1.8 6.6 -6.7 6.6 -8.3 0 -0.5 -23.9 -0.8 -53.1 -0.8 -51.5 0 -53.3 -0.1 -56.4 -2 -3.8 -2.4 -7.8 -10.6 -7.3 -15.2 l0.3 -3.2 51.5 0 c47.4 -0.1 51.8 -0.2 55.5 -1.9 3.9 -1.8 10.5 -7.3 10.5 -8.9 0 -0.4 -30.4 -0.8 -67.5 -0.8 l-67.5 0 4.2 11.8 c6.7 19.2 9.6 23.5 19.4 28.3 6.2 3.1 6.4 3.3 6.4 6.9 0 2.2 -0.7 4.3 -1.6 5.1 -1.9 1.6 -4.4 6.3 -4.4 8.4 0 1.8 5.2 7.5 6.9 7.5 0.5 0 2.2 -0.5 3.8 -1.1z m-39.7 -26.4 c0 -0.4 -0.7 -1.9 -1.5 -3.5 l-1.6 -3 -43.5 0 c-49 0 -49.3 0 -52 -6.7 -1.7 -4 -1.5 -11.8 0.6 -30.3 0.6 -4.7 2.4 -21.5 4 -37.5 1.7 -15.9 4.6 -43.8 6.5 -62 2 -18.1 4.5 -41.5 5.6 -52 1.1 -10.4 2.2 -20 2.6 -21.2 0.5 -2.3 0.8 -2.3 16.3 -2.3 l15.8 0 0.4 20.3 c0.3 17.9 0.6 20.7 2.4 24.7 3.9 8.4 11.6 13.9 20.6 14.8 4.5 0.4 21.9 -3 24.3 -4.8 0.6 -0.4 3 -1.5 5.5 -2.4 11.9 -4.6 28 -18.3 35.7 -30.3 6.9 -10.8 12.3 -28.7 12.3 -40.8 0 -8.3 -2.7 -19 -7.1 -28.3 -5.3 -11.1 -13.5 -19.5 -24.2 -24.7 -6.9 -3.4 -8.9 -3.9 -16.7 -4.3 -6.6 -0.3 -10.3 0 -14.4 1.3 -12.4 3.9 -24.3 14.9 -30.7 28.2 -3.4 7.1 -6.6 20.5 -7.4 31.5 l-0.7 7.7 -16.3 0.3 c-15.7 0.3 -16.4 0.4 -18.9 2.7 -1.5 1.4 -3 4.1 -3.5 6 -0.6 2 -3.5 27.5 -6.6 56.6 -3 29.2 -7.1 67.4 -9 85 -5.9 56 -5.8 54.6 -4.6 59.1 1.4 5.2 7.4 12.2 12.5 14.5 3.8 1.7 7.5 1.9 48.9 1.9 24.6 0 44.7 -0.2 44.7 -0.5z m316 -3 c8.6 -0.8 23.3 -4 29.5 -6.5 2.8 -1 4.4 -1.9 3.7 -2 -0.7 0 -2.7 0.6 -4.5 1.3 -8.7 3.7 -20.9 5.2 -41.7 5.2 -21.8 0 -29 -1 -44.9 -6 -4.1 -1.3 -7.7 -2.2 -7.9 -2 -0.9 0.9 22.4 7.5 31.5 8.9 15.7 2.5 17.8 2.6 34.3 1.1z m-69 -12 c-1.4 -0.8 -2.9 -1.4 -3.5 -1.4 -0.5 0 0.1 0.6 1.5 1.4 1.4 0.8 3 1.4 3.5 1.4 0.6 0 -0.1 -0.6 -1.5 -1.4z m-53.5 -44.3 c1.1 -0.6 1.4 -1.2 0.7 -1.2 -0.7 0 -2.7 1.5 -4.5 3.3 -1.8 1.7 -2.1 2.2 -0.7 1.1 1.4 -1.2 3.4 -2.6 4.5 -3.2z m222 1.3 c-3.2 -2.6 -9 -5.1 -8 -3.5 0.4 0.6 1.2 1 1.8 1 0.7 0 2.8 1.1 4.7 2.5 4.5 3.1 5.4 3.1 1.5 0z m-272.5 -3.9 c3.8 -2 10 -7.5 10 -8.8 0 -0.4 -33.5 -0.8 -74.4 -0.8 l-74.4 0 -7.8 -21.1 c-8.4 -22.7 -11.5 -28.5 -17.8 -33 -6.6 -4.9 -12.4 -6 -29.1 -5.7 l-14.9 0.3 3.3 3.8 c1.9 2.1 4.3 4.3 5.5 4.9 1.1 0.7 7.5 1.5 14.2 1.8 18.5 0.9 18.4 0.8 27.5 26.2 2.8 7.9 6.9 18.9 9.1 24.6 l4 10.3 70.6 -0.3 c66.7 -0.3 70.9 -0.4 74.2 -2.2z m12 -31 c3.8 -2 10 -7.5 10 -8.8 0 -0.4 -34 -0.8 -75.5 -0.8 l-75.5 0 2.1 5.2 c1.1 2.9 2.3 5.6 2.5 6 0.3 0.5 30.3 0.7 66.7 0.6 62.3 -0.3 66.4 -0.4 69.7 -2.2z m-50.5 -30.3 c-0.3 -2.1 -2.6 -23.1 -5.1 -46.8 -2.5 -23.6 -5 -44.7 -5.5 -46.8 -1.8 -7 -3.5 -7.8 -15.6 -7.5 l-10.7 0.3 -0.7 2.8 -0.7 2.7 9.9 0 c8.3 0 10 0.3 10.7 1.8 1.1 1.9 0.8 -0.2 6.2 50.2 5.7 53 4.6 47 8.6 47 3.4 0 3.4 0 2.9 -3.7z m210.8 -8.9 c2.5 -0.8 5.1 -2.2 5.8 -3 1 -1.2 0.3 -1.4 -4 -1.4 -5.1 0 -8.9 -1.2 -10.3 -3.4 -0.4 -0.6 -0.8 -3.7 -0.8 -6.8 0 -4.9 0.3 -5.9 2.5 -7.7 2.9 -2.2 9.9 -4 19.8 -4.8 l6.7 -0.6 0 5.7 c0 3.2 -0.5 6.6 -1 7.7 -0.8 1.5 -0.7 1.9 0.5 1.9 1.1 0 1.5 1.2 1.5 4.9 0 7.1 0.6 8.1 4.9 8.1 l3.7 0 -0.4 -18.2 c-0.4 -19.5 -1 -23.4 -4.9 -28.6 -3.9 -5.2 -9.6 -7.6 -18 -7.4 -8.5 0.2 -13.4 2.2 -18.1 7.7 -3.9 4.4 -4 5.2 -0.4 6 2.4 0.5 3.5 0 6.9 -3.5 4 -4 4.1 -4 11.7 -4 6.8 0 8 0.3 10.1 2.5 2.1 2 2.5 3.4 2.5 8.4 0 7 1 6.4 -14.7 9.1 -12.4 2.2 -18.5 5.4 -21.5 11.2 -1.7 3.1 -1.8 4.3 -0.9 7.1 1.4 4.1 4.4 7 9.1 9.1 4.4 1.9 3.8 1.9 9.3 0z m-151.3 -14.4 l0 -15 8 0 c12.7 0 15 1.8 23.9 19.8 l5.1 10.2 5.1 0 5.1 0 -5.7 -10.7 c-3.2 -6 -6.6 -12 -7.7 -13.5 -2.6 -3.7 -7.5 -6.5 -13.6 -7.9 -5 -1 -5.2 -1.2 -5.2 -4.4 0 -3 0.6 -3.6 5.6 -6.5 3 -1.7 7.4 -5 9.7 -7.3 3.9 -3.9 13.7 -16.9 13.7 -18.1 0 -1.1 -7.6 -0.6 -9.2 0.7 -0.8 0.6 -4.3 5.3 -7.8 10.2 -10.5 15.2 -16.8 20.5 -24.1 20.5 l-2.9 0 0 -16 0 -16 -5.5 0 -5.5 0 0 34.5 0 34.5 5.5 0 5.5 0 0 -15z m75 0.8 c0 -7.9 0.3 -16 0.6 -18 0.6 -3.2 0.4 -3.8 -1.1 -3.8 -1.4 0 -1.6 -0.7 -1.1 -4.7 0.3 -2.7 0.8 -11.2 1.2 -19 l0.7 -14.3 -5.2 0 -5.1 0 0 37 0 37 5 0 5 0 0 -14.2z m39.8 -6 c-0.3 -20.1 -0.3 -20.3 -3.1 -25.1 -3.3 -5.5 -8.6 -8.7 -14.7 -8.7 -3.2 0 -4.8 0.7 -7.8 3.5 l-3.7 3.4 6 0.1 c12 0 13.5 3.1 13.5 28.5 l0 18.5 5.1 0 5.1 0 -0.4 -20.2z m95.2 -16.9 l0 -37 -4.7 0.3 -4.8 0.3 -0.3 36.8 -0.2 36.7 5 0 5 0 0 -37.1z m30 10.1 l0 -27 -5 0 -5 0 0 27 0 27 5 0 5 0 0 -27z m30 -10.1 l0 -37 -4.7 0.3 -4.8 0.3 -0.3 36.8 -0.2 36.7 5 0 5 0 0 -37.1z m-31 -32.7 c2.6 -2.1 2.1 -5.7 -1.1 -6.7 -3.2 -1 -7.7 0.4 -8.5 2.8 -0.7 2.3 2.5 5.7 5.6 5.7 1 0 2.8 -0.8 4 -1.8z"/>
  <path d="M310.8 478.4 c-6 -3.2 -7.2 -10 -6.2 -34.1 l0.7 -17.4 29.4 0.3 29.5 0.3 2.9 3.3 c2.6 2.9 2.9 4 2.9 10 0 7.2 1.1 7.1 3.1 -0.1 1.4 -5.1 0.4 -9.1 -3.3 -13.3 -6 -6.8 -6.3 -6.8 -37.3 -7.4 l-28 -0.5 0.2 -10.8 c0.5 -19.1 5.3 -31.7 15.9 -41.7 5.1 -4.7 7.7 -6.3 13 -8 7.7 -2.3 17.3 -2.6 25.5 -0.6 20 4.7 32.9 25.1 32.9 52.1 0 15.5 -4.5 29.9 -12.9 41.3 -2.6 3.5 -3.7 4.2 -6.6 4.2 -3.1 0 -3.5 -0.3 -3.5 -2.7 0 -2.5 -0.3 -2.3 -2.9 2.3 -5.7 9.8 -18 18.9 -31 22.8 -7 2 -20.6 2.1 -24.3 0z"/>
 </g>
 <g fill="#384f52">
  <path d="M372.9 673.1 c-2.4 -2.4 -2.9 -3.8 -2.9 -7.6 0 -4.8 1.7 -9.2 4.4 -11.4 0.9 -0.8 1.6 -1.7 1.6 -2.1 0 -0.4 -2.9 -2.2 -6.4 -3.9 -6.2 -3 -10.5 -7.2 -13.6 -13.1 -2.2 -4.1 -11.7 -31.9 -11.2 -32.5 0.3 -0.3 33.3 -0.5 73.3 -0.5 l72.8 0 -2.1 3.8 c-3.3 5.7 -6.9 9.3 -11.8 11.6 -4.4 2 -5.9 2.1 -56 2.3 -41.1 0.2 -51.4 0.5 -51.2 1.5 0.9 4.2 3.9 9.1 6.7 10.8 3.1 1.9 5.1 2 57.4 2 43.8 0 54.1 0.2 54.1 1.3 0 0.7 -1.2 3.6 -2.6 6.5 -2.9 5.9 -7.1 8.9 -13.5 9.8 l-4.4 0.6 0 6.2 c0 5.3 -0.4 6.8 -2.8 9.9 -1.6 2.1 -4.6 4.6 -6.7 5.7 -9.4 4.8 -18 0.7 -18 -8.5 0 -5 1 -7.7 4.3 -11.2 l2 -2.3 -24.3 0 -24.2 0 0.6 3.1 c2.7 13.8 -16.2 27.2 -25.5 18z"/>
  <path d="M636.5 646.3 c-32.3 -2.7 -62.6 -15.4 -88.7 -37.2 -9 -7.5 -10.8 -10.2 -8.8 -12.6 2.2 -2.6 4.9 -1.6 12.3 4.6 20.8 17.5 44.2 29.1 69.7 34.6 12 2.5 40.1 2.5 52 0 24.3 -5.2 48.9 -17.5 68.7 -34.4 5.8 -4.9 8.2 -6.3 10.2 -6.1 2 0.2 2.7 0.9 2.9 3 0.3 2.2 -0.9 3.7 -7.5 9.3 -26.6 22.8 -56.2 35.5 -89.5 38.5 -11.1 1 -13.3 1 -21.3 0.3z"/>
  <path d="M525.2 603.8 c-1.8 -1.8 -1.4 -7.7 0.7 -12.3 2 -4.6 7.3 -9.5 10.1 -9.5 1 0 2.2 -0.4 2.5 -1 1.7 -2.7 11.7 0 12.3 3.3 0.4 1.8 0.1 2 -6.6 3.7 -5.3 1.4 -9.5 5 -13 11.4 -2.9 5.4 -4.1 6.3 -6 4.4z"/>
  <path d="M764.3 603.8 c-0.5 -0.7 -2 -3.5 -3.2 -6.1 -2.6 -5.5 -7.8 -9.4 -13.4 -10.4 -5 -0.8 -5.6 -2.1 -2.3 -5 5.5 -4.7 15.6 -1.4 20.8 6.6 2.4 3.9 2.8 5.4 2.6 10.1 -0.2 4.1 -0.7 5.6 -1.9 5.8 -0.9 0.1 -2 -0.3 -2.6 -1z"/>
  <path d="M335.2 578.8 c-2.2 -5.7 -6.3 -16.7 -9.1 -24.6 -9.1 -25.4 -9 -25.3 -27.5 -26.2 -6.7 -0.3 -13 -1.1 -14.1 -1.7 -4.6 -2.6 -9.5 -9.4 -9.5 -13.2 0 -2 0.5 -2.1 18.3 -2.1 20.3 0 25.6 0.9 32.4 5.9 6.2 4.5 9.3 10.3 17.7 33 l7.8 21.1 75.9 0 c41.7 0 75.9 0.2 75.9 0.5 0 1.5 -3.5 7.3 -5.9 9.8 -1.4 1.6 -4.4 3.9 -6.6 5 -4 2.2 -4.4 2.2 -77.7 2.5 l-73.6 0.2 -4 -10.2z"/>
  <path d="M702 562 l0 -19.1 2.3 0.3 c1.5 0.2 2.1 0.9 1.9 2.1 -0.4 2.3 1.1 2.2 3.3 -0.3 4.5 -5 14 -0.9 16.4 7 3.6 11.9 -5.6 22.4 -15.5 17.7 l-3.3 -1.6 -0.3 6.2 c-0.3 5.6 -0.5 6.2 -2.5 6.5 l-2.3 0.3 0 -19.1z m17.9 2.4 c1.5 -1.9 2.1 -4.1 2.1 -7.4 0 -6.3 -2.8 -10 -7.5 -10 -5.2 0 -7.5 3.1 -7.5 9.9 0 4.2 0.5 6 2.2 7.8 3 3.3 8 3.1 10.7 -0.3z"/>
  <path d="M563.7 569.8 c-4.4 -1.6 -1.8 -3.6 4.1 -3 8.5 0.8 10.2 -5.3 2.2 -7.6 -6.9 -2.1 -8.8 -3.2 -10 -6.2 -3.2 -7.8 9.7 -13.7 16.4 -7.5 1.4 1.3 2.6 2.9 2.6 3.5 0 1.5 -3.6 1.2 -5 -0.5 -1.9 -2.3 -8.7 -2 -10 0.4 -1.4 2.7 0.7 4.6 6.9 6.1 5.8 1.4 8.4 3.9 8.3 8 -0.1 3.9 -0.8 4.9 -4.8 6.6 -3.8 1.6 -6.7 1.7 -10.7 0.2z"/>
  <path d="M658.2 569 c-5.6 -3.4 -7.7 -11.5 -4.8 -18.5 1.8 -4.1 4.7 -6.1 10.7 -6.9 3.8 -0.6 5 -0.3 7.3 1.5 10.1 7.9 5.2 25.9 -6.9 25.9 -1.6 0 -4.5 -0.9 -6.3 -2z m11.7 -4.4 c2.8 -2.9 3.7 -8.7 2.1 -12.6 -3.2 -7.7 -13.7 -6.4 -15.3 1.8 -2 10 7 17.4 13.2 10.8z"/>
  <path d="M605 551.5 c0 -17.8 0.1 -18.5 2 -18.5 1.8 0 2 0.7 2 7 0 3.9 0.4 7 0.8 7 0.5 0 1.7 -0.9 2.7 -2 2.5 -2.8 7.7 -2.6 11.2 0.4 2.7 2.3 2.8 2.8 3.1 13.5 0.4 10.7 0.3 11.1 -1.7 11.1 -2 0 -2.1 -0.5 -2.1 -8.7 0 -11 -1.2 -13.7 -6.2 -14.1 -2.7 -0.2 -4.3 0.3 -5.7 1.7 -1.8 1.8 -2.1 3.3 -2.1 11.6 0 8.8 -0.1 9.5 -2 9.5 -1.9 0 -2 -0.7 -2 -18.5z"/>
  <path d="M359.6 557.1 c-1.2 -2 -5.6 -14.2 -5.6 -15.6 0 -1.3 10.2 -1.5 80.5 -1.5 44.3 0 80.5 0.2 80.5 0.5 0 1.5 -3.5 7.3 -5.9 9.8 -1.4 1.6 -4.4 3.9 -6.6 5 -4 2.2 -4.5 2.2 -73.2 2.5 -43.8 0.2 -69.4 -0.1 -69.7 -0.7z"/>
  <path d="M646 515.8 c-5.9 -3.1 -8.2 -6.6 -8.7 -13 -0.9 -11 5.8 -16.7 23 -19.8 14.6 -2.5 14.7 -2.6 14.7 -6.1 0 -10.2 -17.2 -10.5 -21 -0.3 l-0.9 2.3 -6.6 -1.8 c-3.6 -1 -6.9 -2.1 -7.2 -2.4 -0.9 -1 1.9 -6.8 5.1 -10.5 5.1 -5.8 9.6 -7.4 21 -7.5 8.7 -0.2 10.7 0.1 14.3 2.1 4.7 2.4 8.4 7 10.2 12.1 0.6 1.9 1.1 9.7 1.2 17.5 0 7.8 0.4 17.4 0.8 21.4 l0.7 7.2 -7.2 0 c-8.2 0 -8.4 -0.2 -8.4 -8.1 0 -3.7 -0.4 -4.9 -1.5 -4.9 -0.8 0 -1.5 0.7 -1.5 1.5 0 2.8 -7 9.3 -11.7 10.9 -6.4 2.2 -11.1 2 -16.3 -0.6z m22.1 -12.1 c4.4 -3 7.9 -8.3 7.9 -12 0 -2.8 -0.1 -2.9 -3.7 -2.3 -15.4 2.7 -19.3 4.6 -19.3 9.4 0 3.2 0.8 4.5 3.5 6 3.2 1.8 7.9 1.4 11.6 -1.1z"/>
  <path d="M494 479.5 l0 -37.5 8.5 0 8.5 0 0 16 0 16 2.8 -1.2 c4.4 -1.9 10 -7.7 17.4 -18.3 3.9 -5.5 7.8 -10.6 8.6 -11.2 1.6 -1.3 19.2 -1.9 19.2 -0.7 0 1.4 -13.8 20.2 -17.6 24.1 -2.4 2.3 -6.8 5.7 -10 7.4 -6.4 3.6 -6.7 3.1 3.4 5.8 6.4 1.8 10.8 7 18.7 22.1 3.9 7.4 7.2 13.8 7.3 14.2 0.2 0.5 -3.9 0.8 -9.2 0.8 l-9.6 0 -5.1 -10.2 c-8.4 -16.8 -11.5 -19.8 -20.9 -19.8 l-5 0 0 15 0 15 -8.5 0 -8.5 0 0 -37.5z"/>
  <path d="M570 477 l0 -40 8.1 0 8.2 0 -0.5 17.3 c-0.3 9.4 -0.9 18 -1.3 19 -0.4 0.9 -0.3 1.7 0.3 1.7 0.5 0 1.8 -2.3 2.8 -5.1 1.2 -3.2 3.4 -6.5 6.1 -9 4.1 -3.8 4.5 -3.9 11.3 -3.9 9.3 0 13.9 2.3 17.7 8.7 l2.8 4.8 0.3 23.3 0.4 23.2 -8.1 0 -8.1 0 0 -18.5 c0 -20 -0.7 -23.8 -5.1 -26.9 -5.2 -3.6 -12.6 -1 -16.1 5.7 -2 3.8 -2.2 6 -2.6 22 l-0.4 17.7 -7.9 0 -7.9 0 0 -40z"/>
  <path d="M705.2 477.3 l0.3 -39.8 7.8 -0.3 7.7 -0.3 0 40.1 0 40 -8 0 -8 0 0.2 -39.7z"/>
  <path d="M735 487 l0 -30 8 0 8 0 0 30 0 30 -8 0 -8 0 0 -30z"/>
  <path d="M765.2 477.3 l0.3 -39.8 7.8 -0.3 7.7 -0.3 0 40.1 0 40 -8 0 -8 0 0.2 -39.7z"/>
  <path d="M736.3 447.5 c-4.3 -3 -3.6 -11.6 1 -12.9 3.1 -0.8 11 -0.7 12.3 0.2 1.6 1.1 3.4 4.8 3.4 7.2 0 1.1 -1.1 3.2 -2.5 4.5 -1.9 2 -3.4 2.5 -7.2 2.5 -2.7 0 -5.8 -0.7 -7 -1.5z"/>
 </g>
 <g fill="#d6785f">
  <path d="M247.4 647.1 c-4.9 -2.2 -11.1 -9.2 -12.4 -14 -1.3 -4.6 -1.3 -12.3 0 -23.1 1.1 -9.3 4.9 -45.7 13.5 -127.5 3.1 -29.1 6 -54.6 6.6 -56.6 0.5 -1.9 2 -4.6 3.5 -6 2.5 -2.3 3.2 -2.4 18.9 -2.7 l16.3 -0.3 0.7 -7.7 c0.8 -11 4 -24.4 7.4 -31.5 6.4 -13.3 18.3 -24.3 30.7 -28.2 4.2 -1.3 8.1 -1.6 17.2 -1.4 11.4 0.4 12.1 0.5 19.8 4.3 28.3 14 39.4 52.1 25.3 87.4 -3.6 9.2 -8.1 16.1 -15.4 24 -6.2 6.7 -19.3 16 -26.5 18.8 -2.5 0.9 -4.9 2 -5.5 2.4 -0.5 0.5 -5.1 1.8 -10.2 3 -10.9 2.6 -22.6 2.5 -28.4 -0.3 -5.1 -2.5 -9.9 -7.4 -12.3 -12.7 -1.8 -4 -2.1 -6.8 -2.4 -24.7 l-0.4 -20.3 -12.8 0 c-12.4 0 -12.8 0.1 -13.3 2.2 -0.4 1.3 -1.5 10.9 -2.6 21.3 -6.8 63.9 -9.4 88 -11.1 104 -6.5 60.2 -7.2 68.2 -5.6 72 2.6 6 1.9 6 50.9 6.5 l44.8 0.5 3.5 6.3 3.5 6.2 -49.8 0 c-46.2 0 -50.1 -0.2 -53.9 -1.9z m84.7 -171.7 c13.9 -4.2 26.5 -13.8 31.9 -24.6 3.9 -8 4 -12.7 0.1 -17 l-2.9 -3.3 -26.5 -0.3 -26.4 -0.3 -0.7 15.3 c-0.9 20.7 0.2 26.5 5.8 29.9 3.9 2.4 11.3 2.5 18.7 0.3z m50 -36.9 c2.2 -4.4 4.6 -11.1 5.4 -15 6 -28.5 -8.3 -56.7 -31.4 -62.1 -7.7 -1.9 -11.8 -1.7 -19.5 0.6 -5.3 1.7 -7.9 3.3 -13 8 -9.9 9.4 -15.1 22 -15.8 38.5 l-0.3 8 28 0.5 c31 0.6 31.3 0.6 37.3 7.4 5.1 5.8 5.6 15.8 1.2 24.8 l-2.1 4.3 3.1 -3.5 c1.7 -1.9 4.9 -7.1 7.1 -11.5z"/>
  <path d="M438.6 524.3 c-0.3 -2.7 -2.4 -21.7 -4.6 -42.3 -5.4 -50.4 -5.1 -48.3 -6.2 -50.2 -0.7 -1.5 -2.4 -1.8 -11.3 -1.8 l-10.4 0 0.6 -3.2 c1.8 -9.1 0.3 -8.3 15.6 -8.6 15.5 -0.3 16.7 0.2 18.6 7.5 0.8 3.3 8.8 74.7 10.7 96.1 l0.7 7.2 -6.6 0 -6.5 0 -0.6 -4.7z"/>
 </g>
</svg>